<mxfile host="app.diagrams.net" modified="2024-05-13T18:18:39.823Z" agent="Mozilla/5.0 (Windows NT 10.0; Win64; x64) AppleWebKit/537.36 (KHTML, like Gecko) Chrome/123.0.0.0 Safari/537.36 Edg/123.0.0.0" version="24.4.0" etag="Y3tDokyiLBjoXwgcT_gC" type="github">
  <diagram name="第 1 页" id="zXOVlTjP8LaUkdwtT--_">
    <mxGraphModel>
      <root>
        <mxCell id="0" />
        <mxCell id="1" parent="0" />
      </root>
    </mxGraphModel>
  </diagram>
</mxfile>
